<svg id="Layer_1" data-name="Layer 1" xmlns="http://www.w3.org/2000/svg" viewBox="0 0 1000 656.86"><defs><style>.cls-1{fill:#383a3f;}.cls-2{fill:#f6b352;}.cls-3{fill:#f68657;}</style></defs><title>logocorretor</title><path class="cls-1" d="M68.92,536.77c0-20,12.87-35.8,35.41-35.8,10.14,0,21.55,4.48,28.58,12.87l-13.17,11a21.81,21.81,0,0,0-15.41-6.44c-8.49,0-16,6.53-16,18.34,0,10,6,18.43,16.78,18.43A23.61,23.61,0,0,0,115.45,553v-6.44H103.64V531.6h29.27v32.19c-6.25,4.68-17.07,8.39-27.8,8.39C85,572.18,68.92,559.59,68.92,536.77Z"/><path class="cls-1" d="M141.3,542.23V502H160v39.12c0,7.31,3.22,13.85,10.34,13.85,6.14,0,10.73-5,10.73-13.85V502h18.63v40.19c0,18.14-10.34,30-29.36,30C153,572.27,141.3,561.74,141.3,542.23Z"/><path class="cls-1" d="M209.78,502h18.83V571.3H209.78Z"/><path class="cls-1" d="M279.14,560.08H256.9l-3.52,11.22H234L259.14,502h17.75L302,571.3H282.65Zm-4.78-15.51-6.24-20h-.2l-6.24,20Z"/><path class="cls-1" d="M355.13,499.5v71.8H338.55v-4.49h-.1c-2.93,3.71-7.22,5.46-12.68,5.46-13.17,0-22.24-10.14-22.24-24.87s9.17-24.88,21.17-24.88a16.67,16.67,0,0,1,12.87,5.86h.1V499.5Zm-16.78,47.9c0-5.66-3.7-9.56-8.78-9.56-4.87,0-8.48,3.9-8.48,9.56,0,5.85,3.61,9.66,8.48,9.66C334.65,557.06,338.35,553.25,338.35,547.4Z"/><path class="cls-1" d="M361.67,547.4c0-14.73,10.73-24.88,26.24-24.88,15.31,0,26.14,10.15,26.14,24.88s-10.83,24.87-26.14,24.87C372.4,572.27,361.67,562.13,361.67,547.4Zm34.82,0c0-5.56-3.51-9.46-8.58-9.46s-8.68,3.9-8.68,9.46,3.7,9.56,8.68,9.56S396.49,553,396.49,547.4Z"/><path class="cls-1" d="M419.22,536.77c0-19.71,13.07-35.8,36.19-35.8a36.76,36.76,0,0,1,28.2,13.46L470.05,526c-2.93-3.32-8.2-7.22-14.64-7.22-8.58,0-16.68,6.24-16.68,17.95,0,9.46,6.25,17.65,16.68,17.65a19.86,19.86,0,0,0,14.64-7l13.56,11.71a36.29,36.29,0,0,1-28.2,13.16C436.1,572.27,419.22,559.89,419.22,536.77Z"/><path class="cls-1" d="M487.9,536.67c0-21.07,14.73-35.7,36-35.7,21.07,0,36,14.43,36,35.7s-14.92,35.6-36,35.6C502.63,572.27,487.9,557.74,487.9,536.67Zm52.58,0c0-10.15-6.73-18.34-16.58-18.34s-16.68,8.1-16.68,18.34S514.14,555,523.9,555,540.48,546.91,540.48,536.67Z"/><path class="cls-1" d="M603.21,571.3l-13.08-21.17h-4.29V571.3h-18V502H595.6c17.46,0,25.26,10.34,25.26,24.58,0,10.15-4.39,17.07-11.8,20.58v.1l15.7,24Zm-17.37-37.17h5.66c5.85,0,10.15-2.73,10.15-7.9,0-4.29-3.42-7.9-10.15-7.9h-5.66Z"/><path class="cls-1" d="M665.74,571.3l-13.07-21.17h-4.29V571.3h-18V502h27.7c17.46,0,25.27,10.34,25.27,24.58,0,10.15-4.39,17.07-11.81,20.58v.1l15.71,24Zm-17.36-37.17H654c5.86,0,10.15-2.73,10.15-7.9,0-4.29-3.42-7.9-10.15-7.9h-5.65Z"/><path class="cls-1" d="M692.86,502h46v16.48H710.81V529h22v16.1h-22v9.75H741V571.3H692.86Z"/><path class="cls-1" d="M763.1,518.52H745.54V502h53.55v16.48H781.53V571.3H763.1Z"/><path class="cls-1" d="M800.36,536.67c0-21.07,14.73-35.7,36-35.7,21.07,0,36,14.43,36,35.7s-14.93,35.6-36,35.6C815.09,572.27,800.36,557.74,800.36,536.67Zm52.58,0c0-10.15-6.73-18.34-16.58-18.34s-16.68,8.1-16.68,18.34S826.6,555,836.36,555,852.94,546.91,852.94,536.67Z"/><path class="cls-1" d="M915.67,571.3,902.6,550.13h-4.29V571.3H880.36V502h27.7c17.46,0,25.27,10.34,25.27,24.58,0,10.15-4.39,17.07-11.81,20.58v.1l15.71,24Zm-17.36-37.17H904c5.86,0,10.15-2.73,10.15-7.9,0-4.29-3.42-7.9-10.15-7.9h-5.65Z"/><path class="cls-2" d="M648.29,233.85a147.76,147.76,0,0,1-43.41,104.82l-52.41-52.41a74.17,74.17,0,1,0-104.88,0l-52.42,52.41A148.27,148.27,0,1,1,648.29,233.85Z"/><path class="cls-3" d="M395.17,436.87a148.22,148.22,0,0,1,209.71,0L639.73,402,500.06,262.34,360.33,402Z"/></svg>